# xmcd
#
# Track frame offsets: 
#        150
#        22447
#        43233
#        58122
#        77742
#        96448
#        121332
#        142575
#        162823
#        178905
#        196946
#        208139
#        225991
#
# Disc length: 3222 seconds
#
# Revision: 0
# Processed by: cddbd v1.5.2PL0 Copyright (c) Steve Scherf et al.
# Submitted via: ExactAudioCopy v0.99pb4
#
DISCID=b50c940d
DTITLE=Blue Veins - 398 Dean Street
DYEAR=2009
DGENRE=Blues
TTITLE0=Baby Let's Burn
TTITLE1=Yoga
TTITLE2=The Clean-Up
TTITLE3=a Different Story To Me
TTITLE4=Fire Inside
TTITLE5=I Can't stand the Rain
TTITLE6=Heart Is Peaces
TTITLE7=The Common Ground
TTITLE8=Fortunate
TTITLE9=When My World Comes Crashing Down
TTITLE10=Playing By The Rules In Heaven
TTITLE11=River Lake Sea Girl
TTITLE12=If I Had Been Told
EXTD=
EXTT0=
EXTT1=
EXTT2=
EXTT3=
EXTT4=
EXTT5=
EXTT6=
EXTT7=
EXTT8=
EXTT9=
EXTT10=
EXTT11=
EXTT12=
PLAYORDER=
